<svg id="visual" viewBox="0 0 900 600" width="900" height="600" xmlns="http://www.w3.org/2000/svg" xmlns:xlink="http://www.w3.org/1999/xlink" version="1.1"><path d="M0 108L12.5 111C25 114 50 120 75 118.8C100 117.7 125 109.3 150 111.5C175 113.7 200 126.3 225 127.5C250 128.7 275 118.3 300 116.2C325 114 350 120 375 126.8C400 133.7 425 141.3 450 145.7C475 150 500 151 525 145.5C550 140 575 128 600 125.2C625 122.3 650 128.7 675 133C700 137.3 725 139.7 750 141.2C775 142.7 800 143.3 825 140.8C850 138.3 875 132.7 887.5 129.8L900 127L900 0L887.5 0C875 0 850 0 825 0C800 0 775 0 750 0C725 0 700 0 675 0C650 0 625 0 600 0C575 0 550 0 525 0C500 0 475 0 450 0C425 0 400 0 375 0C350 0 325 0 300 0C275 0 250 0 225 0C200 0 175 0 150 0C125 0 100 0 75 0C50 0 25 0 12.5 0L0 0Z" fill="#efcb95"></path><path d="M0 102L12.5 97.2C25 92.3 50 82.7 75 85.2C100 87.7 125 102.3 150 106.3C175 110.3 200 103.7 225 98.8C250 94 275 91 300 89.2C325 87.3 350 86.7 375 89.7C400 92.7 425 99.3 450 104C475 108.7 500 111.3 525 105.8C550 100.3 575 86.7 600 85.8C625 85 650 97 675 101.3C700 105.7 725 102.3 750 103.3C775 104.3 800 109.7 825 107.8C850 106 875 97 887.5 92.5L900 88L900 0L887.5 0C875 0 850 0 825 0C800 0 775 0 750 0C725 0 700 0 675 0C650 0 625 0 600 0C575 0 550 0 525 0C500 0 475 0 450 0C425 0 400 0 375 0C350 0 325 0 300 0C275 0 250 0 225 0C200 0 175 0 150 0C125 0 100 0 75 0C50 0 25 0 12.5 0L0 0Z" fill="#e6c088"></path><path d="M0 58L12.5 58.5C25 59 50 60 75 62.3C100 64.7 125 68.3 150 70.8C175 73.3 200 74.7 225 72.2C250 69.7 275 63.3 300 58.8C325 54.3 350 51.7 375 54.8C400 58 425 67 450 72.5C475 78 500 80 525 81.2C550 82.3 575 82.7 600 78.3C625 74 650 65 675 65.2C700 65.3 725 74.7 750 75C775 75.3 800 66.7 825 62.3C850 58 875 58 887.5 58L900 58L900 0L887.5 0C875 0 850 0 825 0C800 0 775 0 750 0C725 0 700 0 675 0C650 0 625 0 600 0C575 0 550 0 525 0C500 0 475 0 450 0C425 0 400 0 375 0C350 0 325 0 300 0C275 0 250 0 225 0C200 0 175 0 150 0C125 0 100 0 75 0C50 0 25 0 12.5 0L0 0Z" fill="#dcb67c"></path><path d="M0 46L12.5 44.2C25 42.3 50 38.7 75 35C100 31.3 125 27.7 150 29.7C175 31.7 200 39.3 225 42C250 44.7 275 42.3 300 39.7C325 37 350 34 375 35C400 36 425 41 450 42C475 43 500 40 525 40.5C550 41 575 45 600 46.8C625 48.7 650 48.3 675 44.3C700 40.3 725 32.7 750 28C775 23.3 800 21.7 825 21.5C850 21.3 875 22.7 887.5 23.3L900 24L900 0L887.5 0C875 0 850 0 825 0C800 0 775 0 750 0C725 0 700 0 675 0C650 0 625 0 600 0C575 0 550 0 525 0C500 0 475 0 450 0C425 0 400 0 375 0C350 0 325 0 300 0C275 0 250 0 225 0C200 0 175 0 150 0C125 0 100 0 75 0C50 0 25 0 12.5 0L0 0Z" fill="#d3ac70"></path></svg>