<svg id="visual" viewBox="0 0 900 600" width="900" height="600" xmlns="http://www.w3.org/2000/svg" xmlns:xlink="http://www.w3.org/1999/xlink" version="1.1"><path d="M0 490L12.5 487C25 484 50 478 75 479.2C100 480.3 125 488.7 150 486.5C175 484.3 200 471.7 225 470.5C250 469.3 275 479.7 300 481.8C325 484 350 478 375 471.2C400 464.3 425 456.7 450 452.3C475 448 500 447 525 452.5C550 458 575 470 600 472.8C625 475.7 650 469.3 675 465C700 460.7 725 458.3 750 456.8C775 455.3 800 454.7 825 457.2C850 459.7 875 465.3 887.5 468.2L900 471L900 601L887.5 601C875 601 850 601 825 601C800 601 775 601 750 601C725 601 700 601 675 601C650 601 625 601 600 601C575 601 550 601 525 601C500 601 475 601 450 601C425 601 400 601 375 601C350 601 325 601 300 601C275 601 250 601 225 601C200 601 175 601 150 601C125 601 100 601 75 601C50 601 25 601 12.5 601L0 601Z" fill="#efcb95"></path><path d="M0 496L12.5 500.8C25 505.7 50 515.3 75 512.8C100 510.3 125 495.7 150 491.7C175 487.7 200 494.3 225 499.2C250 504 275 507 300 508.8C325 510.7 350 511.3 375 508.3C400 505.3 425 498.7 450 494C475 489.3 500 486.7 525 492.2C550 497.7 575 511.3 600 512.2C625 513 650 501 675 496.7C700 492.3 725 495.7 750 494.7C775 493.7 800 488.3 825 490.2C850 492 875 501 887.5 505.5L900 510L900 601L887.5 601C875 601 850 601 825 601C800 601 775 601 750 601C725 601 700 601 675 601C650 601 625 601 600 601C575 601 550 601 525 601C500 601 475 601 450 601C425 601 400 601 375 601C350 601 325 601 300 601C275 601 250 601 225 601C200 601 175 601 150 601C125 601 100 601 75 601C50 601 25 601 12.5 601L0 601Z" fill="#e6c088"></path><path d="M0 540L12.5 539.5C25 539 50 538 75 535.7C100 533.3 125 529.7 150 527.2C175 524.7 200 523.3 225 525.8C250 528.3 275 534.7 300 539.2C325 543.7 350 546.3 375 543.2C400 540 425 531 450 525.5C475 520 500 518 525 516.8C550 515.7 575 515.3 600 519.7C625 524 650 533 675 532.8C700 532.7 725 523.3 750 523C775 522.7 800 531.3 825 535.7C850 540 875 540 887.5 540L900 540L900 601L887.5 601C875 601 850 601 825 601C800 601 775 601 750 601C725 601 700 601 675 601C650 601 625 601 600 601C575 601 550 601 525 601C500 601 475 601 450 601C425 601 400 601 375 601C350 601 325 601 300 601C275 601 250 601 225 601C200 601 175 601 150 601C125 601 100 601 75 601C50 601 25 601 12.5 601L0 601Z" fill="#dcb67c"></path><path d="M0 552L12.5 553.8C25 555.7 50 559.3 75 563C100 566.7 125 570.3 150 568.3C175 566.3 200 558.7 225 556C250 553.3 275 555.7 300 558.3C325 561 350 564 375 563C400 562 425 557 450 556C475 555 500 558 525 557.5C550 557 575 553 600 551.2C625 549.3 650 549.7 675 553.7C700 557.7 725 565.3 750 570C775 574.7 800 576.3 825 576.5C850 576.7 875 575.3 887.5 574.7L900 574L900 601L887.5 601C875 601 850 601 825 601C800 601 775 601 750 601C725 601 700 601 675 601C650 601 625 601 600 601C575 601 550 601 525 601C500 601 475 601 450 601C425 601 400 601 375 601C350 601 325 601 300 601C275 601 250 601 225 601C200 601 175 601 150 601C125 601 100 601 75 601C50 601 25 601 12.5 601L0 601Z" fill="#d3ac70"></path></svg>