<svg id="visual" viewBox="0 0 900 600" width="900" height="600" xmlns="http://www.w3.org/2000/svg" xmlns:xlink="http://www.w3.org/1999/xlink" version="1.1"><path d="M0 168L12.5 169.7C25 171.3 50 174.7 75 172.5C100 170.3 125 162.7 150 152.2C175 141.7 200 128.3 225 122.8C250 117.3 275 119.7 300 132C325 144.3 350 166.7 375 174.3C400 182 425 175 450 168.7C475 162.3 500 156.7 525 148.7C550 140.7 575 130.3 600 135.7C625 141 650 162 675 173.7C700 185.3 725 187.7 750 182.8C775 178 800 166 825 166C850 166 875 178 887.5 184L900 190L900 0L887.5 0C875 0 850 0 825 0C800 0 775 0 750 0C725 0 700 0 675 0C650 0 625 0 600 0C575 0 550 0 525 0C500 0 475 0 450 0C425 0 400 0 375 0C350 0 325 0 300 0C275 0 250 0 225 0C200 0 175 0 150 0C125 0 100 0 75 0C50 0 25 0 12.5 0L0 0Z" fill="#ae8e5e"></path><path d="M0 128L12.5 128.7C25 129.3 50 130.7 75 130C100 129.3 125 126.7 150 118.5C175 110.3 200 96.7 225 100.3C250 104 275 125 300 127.5C325 130 350 114 375 110.2C400 106.3 425 114.7 450 122.5C475 130.3 500 137.7 525 133C550 128.3 575 111.7 600 112C625 112.3 650 129.7 675 133.5C700 137.3 725 127.7 750 118.8C775 110 800 102 825 106.2C850 110.3 875 126.7 887.5 134.8L900 143L900 0L887.5 0C875 0 850 0 825 0C800 0 775 0 750 0C725 0 700 0 675 0C650 0 625 0 600 0C575 0 550 0 525 0C500 0 475 0 450 0C425 0 400 0 375 0C350 0 325 0 300 0C275 0 250 0 225 0C200 0 175 0 150 0C125 0 100 0 75 0C50 0 25 0 12.5 0L0 0Z" fill="#c5a882"></path><path d="M0 92L12.5 85.7C25 79.3 50 66.7 75 64C100 61.3 125 68.7 150 78.3C175 88 200 100 225 96.3C250 92.7 275 73.3 300 66.7C325 60 350 66 375 67.3C400 68.7 425 65.3 450 63.3C475 61.3 500 60.7 525 63.3C550 66 575 72 600 72.7C625 73.3 650 68.7 675 68C700 67.3 725 70.7 750 78C775 85.3 800 96.7 825 94C850 91.3 875 74.7 887.5 66.3L900 58L900 0L887.5 0C875 0 850 0 825 0C800 0 775 0 750 0C725 0 700 0 675 0C650 0 625 0 600 0C575 0 550 0 525 0C500 0 475 0 450 0C425 0 400 0 375 0C350 0 325 0 300 0C275 0 250 0 225 0C200 0 175 0 150 0C125 0 100 0 75 0C50 0 25 0 12.5 0L0 0Z" fill="#dbc2a7"></path><path d="M0 65L12.5 59.7C25 54.3 50 43.7 75 43.3C100 43 125 53 150 51.7C175 50.3 200 37.7 225 32.3C250 27 275 29 300 36C325 43 350 55 375 61.3C400 67.7 425 68.3 450 67C475 65.7 500 62.3 525 58C550 53.7 575 48.3 600 42.7C625 37 650 31 675 28.5C700 26 725 27 750 28.7C775 30.3 800 32.7 825 35.5C850 38.3 875 41.7 887.5 43.3L900 45L900 0L887.5 0C875 0 850 0 825 0C800 0 775 0 750 0C725 0 700 0 675 0C650 0 625 0 600 0C575 0 550 0 525 0C500 0 475 0 450 0C425 0 400 0 375 0C350 0 325 0 300 0C275 0 250 0 225 0C200 0 175 0 150 0C125 0 100 0 75 0C50 0 25 0 12.5 0L0 0Z" fill="#efdecd"></path></svg>