<svg id="visual" viewBox="0 0 900 600" width="900" height="600" xmlns="http://www.w3.org/2000/svg" xmlns:xlink="http://www.w3.org/1999/xlink" version="1.1"><path d="M0 155L12.5 154.8C25 154.7 50 154.3 75 155.5C100 156.7 125 159.3 150 153.5C175 147.7 200 133.3 225 134C250 134.7 275 150.3 300 160.3C325 170.3 350 174.7 375 167.5C400 160.3 425 141.7 450 143.2C475 144.7 500 166.3 525 175.8C550 185.3 575 182.7 600 177C625 171.3 650 162.7 675 158.2C700 153.7 725 153.3 750 152.5C775 151.7 800 150.3 825 145.7C850 141 875 133 887.5 129L900 125L900 0L887.5 0C875 0 850 0 825 0C800 0 775 0 750 0C725 0 700 0 675 0C650 0 625 0 600 0C575 0 550 0 525 0C500 0 475 0 450 0C425 0 400 0 375 0C350 0 325 0 300 0C275 0 250 0 225 0C200 0 175 0 150 0C125 0 100 0 75 0C50 0 25 0 12.5 0L0 0Z" fill="#c7b292"></path><path d="M0 139L12.5 135.5C25 132 50 125 75 125.8C100 126.7 125 135.3 150 129.7C175 124 200 104 225 104.7C250 105.3 275 126.7 300 130.7C325 134.7 350 121.3 375 122.5C400 123.7 425 139.3 450 136.5C475 133.7 500 112.3 525 112C550 111.7 575 132.3 600 136.2C625 140 650 127 675 119.2C700 111.3 725 108.7 750 114.5C775 120.3 800 134.7 825 142.8C850 151 875 153 887.5 154L900 155L900 0L887.5 0C875 0 850 0 825 0C800 0 775 0 750 0C725 0 700 0 675 0C650 0 625 0 600 0C575 0 550 0 525 0C500 0 475 0 450 0C425 0 400 0 375 0C350 0 325 0 300 0C275 0 250 0 225 0C200 0 175 0 150 0C125 0 100 0 75 0C50 0 25 0 12.5 0L0 0Z" fill="#dac6a8"></path><path d="M0 54L12.5 57.5C25 61 50 68 75 72.3C100 76.7 125 78.3 150 80.2C175 82 200 84 225 85C250 86 275 86 300 82.7C325 79.3 350 72.7 375 74.8C400 77 425 88 450 88.5C475 89 500 79 525 74.7C550 70.3 575 71.7 600 72.8C625 74 650 75 675 77C700 79 725 82 750 80.7C775 79.3 800 73.7 825 75C850 76.3 875 84.7 887.5 88.8L900 93L900 0L887.5 0C875 0 850 0 825 0C800 0 775 0 750 0C725 0 700 0 675 0C650 0 625 0 600 0C575 0 550 0 525 0C500 0 475 0 450 0C425 0 400 0 375 0C350 0 325 0 300 0C275 0 250 0 225 0C200 0 175 0 150 0C125 0 100 0 75 0C50 0 25 0 12.5 0L0 0Z" fill="#ecdabe"></path><path d="M0 26L12.5 32C25 38 50 50 75 51C100 52 125 42 150 37.3C175 32.7 200 33.3 225 32.3C250 31.3 275 28.7 300 30.7C325 32.7 350 39.3 375 46.2C400 53 425 60 450 58.3C475 56.7 500 46.3 525 41.7C550 37 575 38 600 38C625 38 650 37 675 41.7C700 46.3 725 56.7 750 56.7C775 56.7 800 46.3 825 43.2C850 40 875 44 887.5 46L900 48L900 0L887.5 0C875 0 850 0 825 0C800 0 775 0 750 0C725 0 700 0 675 0C650 0 625 0 600 0C575 0 550 0 525 0C500 0 475 0 450 0C425 0 400 0 375 0C350 0 325 0 300 0C275 0 250 0 225 0C200 0 175 0 150 0C125 0 100 0 75 0C50 0 25 0 12.5 0L0 0Z" fill="#ffefd5"></path></svg>