<svg id="visual" viewBox="0 0 900 600" width="900" height="600" xmlns="http://www.w3.org/2000/svg" xmlns:xlink="http://www.w3.org/1999/xlink" version="1.1"><path d="M0 472L10.7 467.7C21.3 463.3 42.7 454.7 64.2 449.2C85.7 443.7 107.3 441.3 128.8 438.8C150.3 436.3 171.7 433.7 193 438.7C214.3 443.7 235.7 456.3 257 461.8C278.3 467.3 299.7 465.7 321.2 455.2C342.7 444.7 364.3 425.3 385.8 427.7C407.3 430 428.7 454 450 460.3C471.3 466.7 492.7 455.3 514.2 453.2C535.7 451 557.3 458 578.8 459.3C600.3 460.7 621.7 456.3 643 452.7C664.3 449 685.7 446 707 451.2C728.3 456.3 749.7 469.7 771.2 468.5C792.7 467.3 814.3 451.7 835.8 443C857.3 434.3 878.7 432.7 889.3 431.8L900 431L900 601L889.3 601C878.7 601 857.3 601 835.8 601C814.3 601 792.7 601 771.2 601C749.7 601 728.3 601 707 601C685.7 601 664.3 601 643 601C621.7 601 600.3 601 578.8 601C557.3 601 535.7 601 514.2 601C492.7 601 471.3 601 450 601C428.7 601 407.3 601 385.8 601C364.3 601 342.7 601 321.2 601C299.7 601 278.3 601 257 601C235.7 601 214.3 601 193 601C171.7 601 150.3 601 128.8 601C107.3 601 85.7 601 64.2 601C42.7 601 21.3 601 10.7 601L0 601Z" fill="#e3bc80"></path><path d="M0 459L10.7 461.8C21.3 464.7 42.7 470.3 64.2 470.5C85.7 470.7 107.3 465.3 128.8 462.3C150.3 459.3 171.7 458.7 193 464.8C214.3 471 235.7 484 257 484.5C278.3 485 299.7 473 321.2 466.8C342.7 460.7 364.3 460.3 385.8 467.2C407.3 474 428.7 488 450 485.8C471.3 483.7 492.7 465.3 514.2 464.5C535.7 463.7 557.3 480.3 578.8 483.2C600.3 486 621.7 475 643 476C664.3 477 685.7 490 707 497C728.3 504 749.7 505 771.2 500.2C792.7 495.3 814.3 484.7 835.8 481C857.3 477.3 878.7 480.7 889.3 482.3L900 484L900 601L889.3 601C878.7 601 857.3 601 835.8 601C814.3 601 792.7 601 771.2 601C749.7 601 728.3 601 707 601C685.7 601 664.3 601 643 601C621.7 601 600.3 601 578.8 601C557.3 601 535.7 601 514.2 601C492.7 601 471.3 601 450 601C428.7 601 407.3 601 385.8 601C364.3 601 342.7 601 321.2 601C299.7 601 278.3 601 257 601C235.7 601 214.3 601 193 601C171.7 601 150.3 601 128.8 601C107.3 601 85.7 601 64.2 601C42.7 601 21.3 601 10.7 601L0 601Z" fill="#ebd198"></path><path d="M0 508L10.7 506C21.3 504 42.7 500 64.2 504.3C85.7 508.7 107.3 521.3 128.8 521.7C150.3 522 171.7 510 193 511.5C214.3 513 235.7 528 257 530C278.3 532 299.7 521 321.2 520.2C342.7 519.3 364.3 528.7 385.8 525.7C407.3 522.7 428.7 507.3 450 503.3C471.3 499.3 492.7 506.7 514.2 514.2C535.7 521.7 557.3 529.3 578.8 529C600.3 528.7 621.7 520.3 643 521C664.3 521.7 685.7 531.3 707 532.2C728.3 533 749.7 525 771.2 524C792.7 523 814.3 529 835.8 532C857.3 535 878.7 535 889.3 535L900 535L900 601L889.3 601C878.7 601 857.3 601 835.8 601C814.3 601 792.7 601 771.2 601C749.7 601 728.3 601 707 601C685.7 601 664.3 601 643 601C621.7 601 600.3 601 578.8 601C557.3 601 535.7 601 514.2 601C492.7 601 471.3 601 450 601C428.7 601 407.3 601 385.8 601C364.3 601 342.7 601 321.2 601C299.7 601 278.3 601 257 601C235.7 601 214.3 601 193 601C171.7 601 150.3 601 128.8 601C107.3 601 85.7 601 64.2 601C42.7 601 21.3 601 10.7 601L0 601Z" fill="#f5e5b2"></path><path d="M0 541L10.7 543C21.3 545 42.7 549 64.2 548.2C85.7 547.3 107.3 541.7 128.8 545.2C150.3 548.7 171.7 561.3 193 566.2C214.3 571 235.7 568 257 565.7C278.3 563.3 299.7 561.7 321.2 562.3C342.7 563 364.3 566 385.8 567.5C407.3 569 428.7 569 450 568.2C471.3 567.3 492.7 565.7 514.2 562.3C535.7 559 557.3 554 578.8 553.2C600.3 552.3 621.7 555.7 643 555.3C664.3 555 685.7 551 707 546.5C728.3 542 749.7 537 771.2 537.7C792.7 538.3 814.3 544.7 835.8 544C857.3 543.3 878.7 535.7 889.3 531.8L900 528L900 601L889.3 601C878.7 601 857.3 601 835.8 601C814.3 601 792.7 601 771.2 601C749.7 601 728.3 601 707 601C685.7 601 664.3 601 643 601C621.7 601 600.3 601 578.8 601C557.3 601 535.7 601 514.2 601C492.7 601 471.3 601 450 601C428.7 601 407.3 601 385.8 601C364.3 601 342.7 601 321.2 601C299.7 601 278.3 601 257 601C235.7 601 214.3 601 193 601C171.7 601 150.3 601 128.8 601C107.3 601 85.7 601 64.2 601C42.7 601 21.3 601 10.7 601L0 601Z" fill="#fffacd"></path></svg>